<svg x="0" y="0" width="1179.1875" height="523" version="1.1" xmlns="http://www.w3.org/2000/svg" xmlns:xlink="http://www.w3.org/1999/xlink"><g fill="none" stroke="none" stroke-width="none" stroke-linecap="round" stroke-linejoin="miter" stroke-miterlimit="10" stroke-dasharray="" stroke-dashoffset="0" font-family="sans-serif" font-weight="normal" font-size="12" text-anchor="start" mix-blend-mode="normal"><g><path d="M589.59375,406.77778l0,-157" stroke="#a640bf" stroke-width="8"/><path d="M589.59375,249.77778l-76.98032,-59.06908" stroke="#5940bf" stroke-width="7"/><path d="M512.61343,190.7087l-57.92557,15.52111" stroke="#4073bf" stroke-width="6"/><path d="M454.68786,206.22981l-14.18338,34.2417" stroke="#40bfbf" stroke-width="5"/><path d="M440.50448,240.4715l11.45311,19.83737" stroke="#40bf73" stroke-width="4"/><path d="M451.95759,260.30887l14.03574,1.84784" stroke="#59bf40" stroke-width="3"/><path d="M465.99333,262.15671l6.18679,-6.18679" stroke="#a6bf40" stroke-width="2"/><path d="M472.18012,255.96992l-0.70582,-5.3612" stroke="#bf8c40" stroke-width="1"/><path d="M471.47431,250.60872l-2.89426,-1.671" stroke="#bf4040" stroke-width="1"/><path d="M471.47431,250.60872l2.36315,-2.36315" stroke="#bf4040" stroke-width="1"/><path d="M472.18012,255.96992l5.3612,0.70582" stroke="#bf8c40" stroke-width="1"/><path d="M477.54132,256.67574l2.36315,-2.36315" stroke="#bf4040" stroke-width="1"/><path d="M477.54132,256.67574l1.671,2.89426" stroke="#bf4040" stroke-width="1"/><path d="M465.99333,262.15671l4.37472,7.57724" stroke="#a6bf40" stroke-width="2"/><path d="M470.36805,269.73395l5.3612,0.70582" stroke="#bf8c40" stroke-width="1"/><path d="M475.72926,270.43976l2.36315,-2.36315" stroke="#bf4040" stroke-width="1"/><path d="M475.72926,270.43976l1.671,2.89426" stroke="#bf4040" stroke-width="1"/><path d="M470.36805,269.73395l-2.06935,4.99585" stroke="#bf8c40" stroke-width="1"/><path d="M468.29871,274.72979l1.671,2.89426" stroke="#bf4040" stroke-width="1"/><path d="M468.29871,274.72979l-3.22813,0.86497" stroke="#bf4040" stroke-width="1"/><path d="M451.95759,260.30887l-5.41759,13.07923" stroke="#59bf40" stroke-width="3"/><path d="M446.54,273.3881l4.37472,7.57724" stroke="#a6bf40" stroke-width="2"/><path d="M450.91472,280.96534l5.3612,0.70582" stroke="#bf8c40" stroke-width="1"/><path d="M456.27592,281.67115l2.36315,-2.36315" stroke="#bf4040" stroke-width="1"/><path d="M456.27592,281.67115l1.671,2.89426" stroke="#bf4040" stroke-width="1"/><path d="M450.91472,280.96534l-2.06935,4.99585" stroke="#bf8c40" stroke-width="1"/><path d="M448.84537,285.96118l1.671,2.89426" stroke="#bf4040" stroke-width="1"/><path d="M448.84537,285.96118l-3.22813,0.86497" stroke="#bf4040" stroke-width="1"/><path d="M446.54,273.3881l-8.45131,2.26452" stroke="#a6bf40" stroke-width="2"/><path d="M438.08869,275.65262l-2.06935,4.99585" stroke="#bf8c40" stroke-width="1"/><path d="M436.01934,280.64847l1.671,2.89426" stroke="#bf4040" stroke-width="1"/><path d="M436.01934,280.64847l-3.22813,0.86497" stroke="#bf4040" stroke-width="1"/><path d="M438.08869,275.65262l-4.29003,-3.29186" stroke="#bf8c40" stroke-width="1"/><path d="M433.79866,272.36076l-3.22813,0.86497" stroke="#bf4040" stroke-width="1"/><path d="M433.79866,272.36076l0,-3.34201" stroke="#bf4040" stroke-width="1"/><path d="M440.50448,240.4715l-22.12571,5.92857" stroke="#40bf73" stroke-width="4"/><path d="M418.37878,246.40007l-5.41759,13.07923" stroke="#59bf40" stroke-width="3"/><path d="M412.96118,259.4793l4.37472,7.57724" stroke="#a6bf40" stroke-width="2"/><path d="M417.3359,267.05654l5.3612,0.70582" stroke="#bf8c40" stroke-width="1"/><path d="M422.6971,267.76235l2.36315,-2.36315" stroke="#bf4040" stroke-width="1"/><path d="M422.6971,267.76235l1.671,2.89426" stroke="#bf4040" stroke-width="1"/><path d="M417.3359,267.05654l-2.06935,4.99585" stroke="#bf8c40" stroke-width="1"/><path d="M415.26656,272.05238l1.671,2.89426" stroke="#bf4040" stroke-width="1"/><path d="M415.26656,272.05238l-3.22813,0.86497" stroke="#bf4040" stroke-width="1"/><path d="M412.96118,259.4793l-8.45131,2.26452" stroke="#a6bf40" stroke-width="2"/><path d="M404.50987,261.74382l-2.06935,4.99585" stroke="#bf8c40" stroke-width="1"/><path d="M402.44053,266.73967l1.671,2.89426" stroke="#bf4040" stroke-width="1"/><path d="M402.44053,266.73967l-3.22813,0.86497" stroke="#bf4040" stroke-width="1"/><path d="M404.50987,261.74382l-4.29003,-3.29186" stroke="#bf8c40" stroke-width="1"/><path d="M400.21984,258.45196l-3.22813,0.86497" stroke="#bf4040" stroke-width="1"/><path d="M400.21984,258.45196l0,-3.34201" stroke="#bf4040" stroke-width="1"/><path d="M418.37878,246.40007l-11.23139,-8.61815" stroke="#59bf40" stroke-width="3"/><path d="M407.14739,237.78192l-8.45131,2.26452" stroke="#a6bf40" stroke-width="2"/><path d="M398.69608,240.04644l-2.06935,4.99585" stroke="#bf8c40" stroke-width="1"/><path d="M396.62673,245.04229l1.671,2.89426" stroke="#bf4040" stroke-width="1"/><path d="M396.62673,245.04229l-3.22813,0.86497" stroke="#bf4040" stroke-width="1"/><path d="M398.69608,240.04644l-4.29003,-3.29186" stroke="#bf8c40" stroke-width="1"/><path d="M394.40605,236.75459l-3.22813,0.86497" stroke="#bf4040" stroke-width="1"/><path d="M394.40605,236.75459l0,-3.34201" stroke="#bf4040" stroke-width="1"/><path d="M407.14739,237.78192l0,-8.74944" stroke="#a6bf40" stroke-width="2"/><path d="M407.14739,229.03248l-4.29003,-3.29186" stroke="#bf8c40" stroke-width="1"/><path d="M402.85736,225.74063l-3.22813,0.86497" stroke="#bf4040" stroke-width="1"/><path d="M402.85736,225.74063l0,-3.34201" stroke="#bf4040" stroke-width="1"/><path d="M407.14739,229.03248l4.29003,-3.29186" stroke="#bf8c40" stroke-width="1"/><path d="M411.43742,225.74063l0,-3.34201" stroke="#bf4040" stroke-width="1"/><path d="M411.43742,225.74063l3.22813,0.86497" stroke="#bf4040" stroke-width="1"/><path d="M454.68786,206.22981l-29.40401,-22.56249" stroke="#40bfbf" stroke-width="5"/><path d="M425.28385,183.66731l-22.12571,5.92857" stroke="#40bf73" stroke-width="4"/><path d="M403.15814,189.59588l-5.41759,13.07923" stroke="#59bf40" stroke-width="3"/><path d="M397.74055,202.67511l4.37472,7.57724" stroke="#a6bf40" stroke-width="2"/><path d="M402.11527,210.25235l5.3612,0.70582" stroke="#bf8c40" stroke-width="1"/><path d="M407.47647,210.95816l2.36315,-2.36315" stroke="#bf4040" stroke-width="1"/><path d="M407.47647,210.95816l1.671,2.89426" stroke="#bf4040" stroke-width="1"/><path d="M402.11527,210.25235l-2.06935,4.99585" stroke="#bf8c40" stroke-width="1"/><path d="M400.04592,215.24819l1.671,2.89426" stroke="#bf4040" stroke-width="1"/><path d="M400.04592,215.24819l-3.22813,0.86497" stroke="#bf4040" stroke-width="1"/><path d="M397.74055,202.67511l-8.45131,2.26452" stroke="#a6bf40" stroke-width="2"/><path d="M389.28924,204.93963l-2.06935,4.99585" stroke="#bf8c40" stroke-width="1"/><path d="M387.21989,209.93548l1.671,2.89426" stroke="#bf4040" stroke-width="1"/><path d="M387.21989,209.93548l-3.22813,0.86497" stroke="#bf4040" stroke-width="1"/><path d="M389.28924,204.93963l-4.29003,-3.29186" stroke="#bf8c40" stroke-width="1"/><path d="M384.99921,201.64777l-3.22813,0.86497" stroke="#bf4040" stroke-width="1"/><path d="M384.99921,201.64777l0,-3.34201" stroke="#bf4040" stroke-width="1"/><path d="M403.15814,189.59588l-11.23139,-8.61815" stroke="#59bf40" stroke-width="3"/><path d="M391.92675,180.97773l-8.45131,2.26452" stroke="#a6bf40" stroke-width="2"/><path d="M383.47544,183.24225l-2.06935,4.99585" stroke="#bf8c40" stroke-width="1"/><path d="M381.40609,188.2381l1.671,2.89426" stroke="#bf4040" stroke-width="1"/><path d="M381.40609,188.2381l-3.22813,0.86497" stroke="#bf4040" stroke-width="1"/><path d="M383.47544,183.24225l-4.29003,-3.29186" stroke="#bf8c40" stroke-width="1"/><path d="M379.18541,179.9504l-3.22813,0.86497" stroke="#bf4040" stroke-width="1"/><path d="M379.18541,179.9504l0,-3.34201" stroke="#bf4040" stroke-width="1"/><path d="M391.92675,180.97773l0,-8.74944" stroke="#a6bf40" stroke-width="2"/><path d="M391.92675,172.22829l-4.29003,-3.29186" stroke="#bf8c40" stroke-width="1"/><path d="M387.63672,168.93644l-3.22813,0.86497" stroke="#bf4040" stroke-width="1"/><path d="M387.63672,168.93644l0,-3.34201" stroke="#bf4040" stroke-width="1"/><path d="M391.92675,172.22829l4.29003,-3.29186" stroke="#bf8c40" stroke-width="1"/><path d="M396.21678,168.93644l0,-3.34201" stroke="#bf4040" stroke-width="1"/><path d="M396.21678,168.93644l3.22813,0.86497" stroke="#bf4040" stroke-width="1"/><path d="M425.28385,183.66731l0,-22.90622" stroke="#40bf73" stroke-width="4"/><path d="M425.28385,160.7611l-11.23139,-8.61815" stroke="#59bf40" stroke-width="3"/><path d="M414.05246,152.14295l-8.45131,2.26452" stroke="#a6bf40" stroke-width="2"/><path d="M405.60115,154.40747l-2.06935,4.99585" stroke="#bf8c40" stroke-width="1"/><path d="M403.5318,159.40332l1.671,2.89426" stroke="#bf4040" stroke-width="1"/><path d="M403.5318,159.40332l-3.22813,0.86497" stroke="#bf4040" stroke-width="1"/><path d="M405.60115,154.40747l-4.29003,-3.29186" stroke="#bf8c40" stroke-width="1"/><path d="M401.31112,151.11561l-3.22813,0.86497" stroke="#bf4040" stroke-width="1"/><path d="M401.31112,151.11561l0,-3.34201" stroke="#bf4040" stroke-width="1"/><path d="M414.05246,152.14295l0,-8.74944" stroke="#a6bf40" stroke-width="2"/><path d="M414.05246,143.39351l-4.29003,-3.29186" stroke="#bf8c40" stroke-width="1"/><path d="M409.76243,140.10165l-3.22813,0.86497" stroke="#bf4040" stroke-width="1"/><path d="M409.76243,140.10165l0,-3.34201" stroke="#bf4040" stroke-width="1"/><path d="M414.05246,143.39351l4.29003,-3.29186" stroke="#bf8c40" stroke-width="1"/><path d="M418.34249,140.10165l0,-3.34201" stroke="#bf4040" stroke-width="1"/><path d="M418.34249,140.10165l3.22813,0.86497" stroke="#bf4040" stroke-width="1"/><path d="M425.28385,160.7611l11.23139,-8.61815" stroke="#59bf40" stroke-width="3"/><path d="M436.51524,152.14295l0,-8.74944" stroke="#a6bf40" stroke-width="2"/><path d="M436.51524,143.39351l-4.29003,-3.29186" stroke="#bf8c40" stroke-width="1"/><path d="M432.22521,140.10165l-3.22813,0.86497" stroke="#bf4040" stroke-width="1"/><path d="M432.22521,140.10165l0,-3.34201" stroke="#bf4040" stroke-width="1"/><path d="M436.51524,143.39351l4.29003,-3.29186" stroke="#bf8c40" stroke-width="1"/><path d="M440.80526,140.10165l0,-3.34201" stroke="#bf4040" stroke-width="1"/><path d="M440.80526,140.10165l3.22813,0.86497" stroke="#bf4040" stroke-width="1"/><path d="M436.51524,152.14295l8.45131,2.26452" stroke="#a6bf40" stroke-width="2"/><path d="M444.96654,154.40747l4.29003,-3.29186" stroke="#bf8c40" stroke-width="1"/><path d="M449.25657,151.11561l0,-3.34201" stroke="#bf4040" stroke-width="1"/><path d="M449.25657,151.11561l3.22813,0.86497" stroke="#bf4040" stroke-width="1"/><path d="M444.96654,154.40747l2.06935,4.99585" stroke="#bf8c40" stroke-width="1"/><path d="M447.03589,159.40332l3.22813,0.86497" stroke="#bf4040" stroke-width="1"/><path d="M447.03589,159.40332l-1.671,2.89426" stroke="#bf4040" stroke-width="1"/><path d="M512.61343,190.7087l0,-59.96896" stroke="#4073bf" stroke-width="6"/><path d="M512.61343,130.73974l-29.40401,-22.56249" stroke="#40bfbf" stroke-width="5"/><path d="M483.20941,108.17725l-22.12571,5.92857" stroke="#40bf73" stroke-width="4"/><path d="M461.08371,114.10581l-5.41759,13.07923" stroke="#59bf40" stroke-width="3"/><path d="M455.66611,127.18504l4.37472,7.57724" stroke="#a6bf40" stroke-width="2"/><path d="M460.04083,134.76228l5.3612,0.70582" stroke="#bf8c40" stroke-width="1"/><path d="M465.40203,135.46809l2.36315,-2.36315" stroke="#bf4040" stroke-width="1"/><path d="M465.40203,135.46809l1.671,2.89426" stroke="#bf4040" stroke-width="1"/><path d="M460.04083,134.76228l-2.06935,4.99585" stroke="#bf8c40" stroke-width="1"/><path d="M457.97148,139.75812l1.671,2.89426" stroke="#bf4040" stroke-width="1"/><path d="M457.97148,139.75812l-3.22813,0.86497" stroke="#bf4040" stroke-width="1"/><path d="M455.66611,127.18504l-8.45131,2.26452" stroke="#a6bf40" stroke-width="2"/><path d="M447.2148,129.44956l-2.06935,4.99585" stroke="#bf8c40" stroke-width="1"/><path d="M445.14546,134.44541l1.671,2.89426" stroke="#bf4040" stroke-width="1"/><path d="M445.14546,134.44541l-3.22813,0.86497" stroke="#bf4040" stroke-width="1"/><path d="M447.2148,129.44956l-4.29003,-3.29186" stroke="#bf8c40" stroke-width="1"/><path d="M442.92477,126.15771l-3.22813,0.86497" stroke="#bf4040" stroke-width="1"/><path d="M442.92477,126.15771l0,-3.34201" stroke="#bf4040" stroke-width="1"/><path d="M461.08371,114.10581l-11.23139,-8.61815" stroke="#59bf40" stroke-width="3"/><path d="M449.85232,105.48766l-8.45131,2.26452" stroke="#a6bf40" stroke-width="2"/><path d="M441.40101,107.75218l-2.06935,4.99585" stroke="#bf8c40" stroke-width="1"/><path d="M439.33166,112.74803l1.671,2.89426" stroke="#bf4040" stroke-width="1"/><path d="M439.33166,112.74803l-3.22813,0.86497" stroke="#bf4040" stroke-width="1"/><path d="M441.40101,107.75218l-4.29003,-3.29186" stroke="#bf8c40" stroke-width="1"/><path d="M437.11098,104.46033l-3.22813,0.86497" stroke="#bf4040" stroke-width="1"/><path d="M437.11098,104.46033l0,-3.34201" stroke="#bf4040" stroke-width="1"/><path d="M449.85232,105.48766l0,-8.74944" stroke="#a6bf40" stroke-width="2"/><path d="M449.85232,96.73822l-4.29003,-3.29186" stroke="#bf8c40" stroke-width="1"/><path d="M445.56229,93.44637l-3.22813,0.86497" stroke="#bf4040" stroke-width="1"/><path d="M445.56229,93.44637l0,-3.34201" stroke="#bf4040" stroke-width="1"/><path d="M449.85232,96.73822l4.29003,-3.29186" stroke="#bf8c40" stroke-width="1"/><path d="M454.14235,93.44637l0,-3.34201" stroke="#bf4040" stroke-width="1"/><path d="M454.14235,93.44637l3.22813,0.86497" stroke="#bf4040" stroke-width="1"/><path d="M483.20941,108.17725l0,-22.90622" stroke="#40bf73" stroke-width="4"/><path d="M483.20941,85.27103l-11.23139,-8.61815" stroke="#59bf40" stroke-width="3"/><path d="M471.97802,76.65288l-8.45131,2.26452" stroke="#a6bf40" stroke-width="2"/><path d="M463.52671,78.9174l-2.06935,4.99585" stroke="#bf8c40" stroke-width="1"/><path d="M461.45737,83.91325l1.671,2.89426" stroke="#bf4040" stroke-width="1"/><path d="M461.45737,83.91325l-3.22813,0.86497" stroke="#bf4040" stroke-width="1"/><path d="M463.52671,78.9174l-4.29003,-3.29186" stroke="#bf8c40" stroke-width="1"/><path d="M459.23668,75.62555l-3.22813,0.86497" stroke="#bf4040" stroke-width="1"/><path d="M459.23668,75.62555l0,-3.34201" stroke="#bf4040" stroke-width="1"/><path d="M471.97802,76.65288l0,-8.74944" stroke="#a6bf40" stroke-width="2"/><path d="M471.97802,67.90344l-4.29003,-3.29186" stroke="#bf8c40" stroke-width="1"/><path d="M467.68799,64.61159l-3.22813,0.86497" stroke="#bf4040" stroke-width="1"/><path d="M467.68799,64.61159l0,-3.34201" stroke="#bf4040" stroke-width="1"/><path d="M471.97802,67.90344l4.29003,-3.29186" stroke="#bf8c40" stroke-width="1"/><path d="M476.26805,64.61159l0,-3.34201" stroke="#bf4040" stroke-width="1"/><path d="M476.26805,64.61159l3.22813,0.86497" stroke="#bf4040" stroke-width="1"/><path d="M483.20941,85.27103l11.23139,-8.61815" stroke="#59bf40" stroke-width="3"/><path d="M494.4408,76.65288l0,-8.74944" stroke="#a6bf40" stroke-width="2"/><path d="M494.4408,67.90344l-4.29003,-3.29186" stroke="#bf8c40" stroke-width="1"/><path d="M490.15077,64.61159l-3.22813,0.86497" stroke="#bf4040" stroke-width="1"/><path d="M490.15077,64.61159l0,-3.34201" stroke="#bf4040" stroke-width="1"/><path d="M494.4408,67.90344l4.29003,-3.29186" stroke="#bf8c40" stroke-width="1"/><path d="M498.73083,64.61159l0,-3.34201" stroke="#bf4040" stroke-width="1"/><path d="M498.73083,64.61159l3.22813,0.86497" stroke="#bf4040" stroke-width="1"/><path d="M494.4408,76.65288l8.45131,2.26452" stroke="#a6bf40" stroke-width="2"/><path d="M502.89211,78.9174l4.29003,-3.29186" stroke="#bf8c40" stroke-width="1"/><path d="M507.18214,75.62555l0,-3.34201" stroke="#bf4040" stroke-width="1"/><path d="M507.18214,75.62555l3.22813,0.86497" stroke="#bf4040" stroke-width="1"/><path d="M502.89211,78.9174l2.06935,4.99585" stroke="#bf8c40" stroke-width="1"/><path d="M504.96146,83.91325l3.22813,0.86497" stroke="#bf4040" stroke-width="1"/><path d="M504.96146,83.91325l-1.671,2.89426" stroke="#bf4040" stroke-width="1"/><path d="M512.61343,130.73974l29.40401,-22.56249" stroke="#40bfbf" stroke-width="5"/><path d="M542.01744,108.17725l0,-22.90622" stroke="#40bf73" stroke-width="4"/><path d="M542.01744,85.27103l-11.23139,-8.61815" stroke="#59bf40" stroke-width="3"/><path d="M530.78605,76.65288l-8.45131,2.26452" stroke="#a6bf40" stroke-width="2"/><path d="M522.33474,78.9174l-2.06935,4.99585" stroke="#bf8c40" stroke-width="1"/><path d="M520.26539,83.91325l1.671,2.89426" stroke="#bf4040" stroke-width="1"/><path d="M520.26539,83.91325l-3.22813,0.86497" stroke="#bf4040" stroke-width="1"/><path d="M522.33474,78.9174l-4.29003,-3.29186" stroke="#bf8c40" stroke-width="1"/><path d="M518.04471,75.62555l-3.22813,0.86497" stroke="#bf4040" stroke-width="1"/><path d="M518.04471,75.62555l0,-3.34201" stroke="#bf4040" stroke-width="1"/><path d="M530.78605,76.65288l0,-8.74944" stroke="#a6bf40" stroke-width="2"/><path d="M530.78605,67.90344l-4.29003,-3.29186" stroke="#bf8c40" stroke-width="1"/><path d="M526.49602,64.61159l-3.22813,0.86497" stroke="#bf4040" stroke-width="1"/><path d="M526.49602,64.61159l0,-3.34201" stroke="#bf4040" stroke-width="1"/><path d="M530.78605,67.90344l4.29003,-3.29186" stroke="#bf8c40" stroke-width="1"/><path d="M535.07608,64.61159l0,-3.34201" stroke="#bf4040" stroke-width="1"/><path d="M535.07608,64.61159l3.22813,0.86497" stroke="#bf4040" stroke-width="1"/><path d="M542.01744,85.27103l11.23139,-8.61815" stroke="#59bf40" stroke-width="3"/><path d="M553.24883,76.65288l0,-8.74944" stroke="#a6bf40" stroke-width="2"/><path d="M553.24883,67.90344l-4.29003,-3.29186" stroke="#bf8c40" stroke-width="1"/><path d="M548.9588,64.61159l-3.22813,0.86497" stroke="#bf4040" stroke-width="1"/><path d="M548.9588,64.61159l0,-3.34201" stroke="#bf4040" stroke-width="1"/><path d="M553.24883,67.90344l4.29003,-3.29186" stroke="#bf8c40" stroke-width="1"/><path d="M557.53886,64.61159l0,-3.34201" stroke="#bf4040" stroke-width="1"/><path d="M557.53886,64.61159l3.22813,0.86497" stroke="#bf4040" stroke-width="1"/><path d="M553.24883,76.65288l8.45131,2.26452" stroke="#a6bf40" stroke-width="2"/><path d="M561.70014,78.9174l4.29003,-3.29186" stroke="#bf8c40" stroke-width="1"/><path d="M565.99017,75.62555l0,-3.34201" stroke="#bf4040" stroke-width="1"/><path d="M565.99017,75.62555l3.22813,0.86497" stroke="#bf4040" stroke-width="1"/><path d="M561.70014,78.9174l2.06935,4.99585" stroke="#bf8c40" stroke-width="1"/><path d="M563.76948,83.91325l3.22813,0.86497" stroke="#bf4040" stroke-width="1"/><path d="M563.76948,83.91325l-1.671,2.89426" stroke="#bf4040" stroke-width="1"/><path d="M542.01744,108.17725l22.12571,5.92857" stroke="#40bf73" stroke-width="4"/><path d="M564.14314,114.10581l11.23139,-8.61815" stroke="#59bf40" stroke-width="3"/><path d="M575.37453,105.48766l0,-8.74944" stroke="#a6bf40" stroke-width="2"/><path d="M575.37453,96.73822l-4.29003,-3.29186" stroke="#bf8c40" stroke-width="1"/><path d="M571.0845,93.44637l-3.22813,0.86497" stroke="#bf4040" stroke-width="1"/><path d="M571.0845,93.44637l0,-3.34201" stroke="#bf4040" stroke-width="1"/><path d="M575.37453,96.73822l4.29003,-3.29186" stroke="#bf8c40" stroke-width="1"/><path d="M579.66456,93.44637l0,-3.34201" stroke="#bf4040" stroke-width="1"/><path d="M579.66456,93.44637l3.22813,0.86497" stroke="#bf4040" stroke-width="1"/><path d="M575.37453,105.48766l8.45131,2.26452" stroke="#a6bf40" stroke-width="2"/><path d="M583.82584,107.75218l4.29003,-3.29186" stroke="#bf8c40" stroke-width="1"/><path d="M588.11587,104.46033l0,-3.34201" stroke="#bf4040" stroke-width="1"/><path d="M588.11587,104.46033l3.22813,0.86497" stroke="#bf4040" stroke-width="1"/><path d="M583.82584,107.75218l2.06935,4.99585" stroke="#bf8c40" stroke-width="1"/><path d="M585.89519,112.74803l3.22813,0.86497" stroke="#bf4040" stroke-width="1"/><path d="M585.89519,112.74803l-1.671,2.89426" stroke="#bf4040" stroke-width="1"/><path d="M564.14314,114.10581l5.41759,13.07923" stroke="#59bf40" stroke-width="3"/><path d="M569.56074,127.18504l8.45131,2.26452" stroke="#a6bf40" stroke-width="2"/><path d="M578.01205,129.44956l4.29003,-3.29186" stroke="#bf8c40" stroke-width="1"/><path d="M582.30208,126.15771l0,-3.34201" stroke="#bf4040" stroke-width="1"/><path d="M582.30208,126.15771l3.22813,0.86497" stroke="#bf4040" stroke-width="1"/><path d="M578.01205,129.44956l2.06935,4.99585" stroke="#bf8c40" stroke-width="1"/><path d="M580.0814,134.44541l3.22813,0.86497" stroke="#bf4040" stroke-width="1"/><path d="M580.0814,134.44541l-1.671,2.89426" stroke="#bf4040" stroke-width="1"/><path d="M569.56074,127.18504l-4.37472,7.57724" stroke="#a6bf40" stroke-width="2"/><path d="M565.18602,134.76228l2.06935,4.99585" stroke="#bf8c40" stroke-width="1"/><path d="M567.25537,139.75812l3.22813,0.86497" stroke="#bf4040" stroke-width="1"/><path d="M567.25537,139.75812l-1.671,2.89426" stroke="#bf4040" stroke-width="1"/><path d="M565.18602,134.76228l-5.3612,0.70582" stroke="#bf8c40" stroke-width="1"/><path d="M559.82482,135.46809l-1.671,2.89426" stroke="#bf4040" stroke-width="1"/><path d="M559.82482,135.46809l-2.36315,-2.36315" stroke="#bf4040" stroke-width="1"/><path d="M589.59375,249.77778l76.98032,-59.06908" stroke="#5940bf" stroke-width="7"/><path d="M666.57407,190.7087l0,-59.96896" stroke="#4073bf" stroke-width="6"/><path d="M666.57407,130.73974l-29.40401,-22.56249" stroke="#40bfbf" stroke-width="5"/><path d="M637.17006,108.17725l-22.12571,5.92857" stroke="#40bf73" stroke-width="4"/><path d="M615.04436,114.10581l-5.41759,13.07923" stroke="#59bf40" stroke-width="3"/><path d="M609.62676,127.18504l4.37472,7.57724" stroke="#a6bf40" stroke-width="2"/><path d="M614.00148,134.76228l5.3612,0.70582" stroke="#bf8c40" stroke-width="1"/><path d="M619.36268,135.46809l2.36315,-2.36315" stroke="#bf4040" stroke-width="1"/><path d="M619.36268,135.46809l1.671,2.89426" stroke="#bf4040" stroke-width="1"/><path d="M614.00148,134.76228l-2.06935,4.99585" stroke="#bf8c40" stroke-width="1"/><path d="M611.93213,139.75812l1.671,2.89426" stroke="#bf4040" stroke-width="1"/><path d="M611.93213,139.75812l-3.22813,0.86497" stroke="#bf4040" stroke-width="1"/><path d="M609.62676,127.18504l-8.45131,2.26452" stroke="#a6bf40" stroke-width="2"/><path d="M601.17545,129.44956l-2.06935,4.99585" stroke="#bf8c40" stroke-width="1"/><path d="M599.1061,134.44541l1.671,2.89426" stroke="#bf4040" stroke-width="1"/><path d="M599.1061,134.44541l-3.22813,0.86497" stroke="#bf4040" stroke-width="1"/><path d="M601.17545,129.44956l-4.29003,-3.29186" stroke="#bf8c40" stroke-width="1"/><path d="M596.88542,126.15771l-3.22813,0.86497" stroke="#bf4040" stroke-width="1"/><path d="M596.88542,126.15771l0,-3.34201" stroke="#bf4040" stroke-width="1"/><path d="M615.04436,114.10581l-11.23139,-8.61815" stroke="#59bf40" stroke-width="3"/><path d="M603.81297,105.48766l-8.45131,2.26452" stroke="#a6bf40" stroke-width="2"/><path d="M595.36166,107.75218l-2.06935,4.99585" stroke="#bf8c40" stroke-width="1"/><path d="M593.29231,112.74803l1.671,2.89426" stroke="#bf4040" stroke-width="1"/><path d="M593.29231,112.74803l-3.22813,0.86497" stroke="#bf4040" stroke-width="1"/><path d="M595.36166,107.75218l-4.29003,-3.29186" stroke="#bf8c40" stroke-width="1"/><path d="M591.07163,104.46033l-3.22813,0.86497" stroke="#bf4040" stroke-width="1"/><path d="M591.07163,104.46033l0,-3.34201" stroke="#bf4040" stroke-width="1"/><path d="M603.81297,105.48766l0,-8.74944" stroke="#a6bf40" stroke-width="2"/><path d="M603.81297,96.73822l-4.29003,-3.29186" stroke="#bf8c40" stroke-width="1"/><path d="M599.52294,93.44637l-3.22813,0.86497" stroke="#bf4040" stroke-width="1"/><path d="M599.52294,93.44637l0,-3.34201" stroke="#bf4040" stroke-width="1"/><path d="M603.81297,96.73822l4.29003,-3.29186" stroke="#bf8c40" stroke-width="1"/><path d="M608.103,93.44637l0,-3.34201" stroke="#bf4040" stroke-width="1"/><path d="M608.103,93.44637l3.22813,0.86497" stroke="#bf4040" stroke-width="1"/><path d="M637.17006,108.17725l0,-22.90622" stroke="#40bf73" stroke-width="4"/><path d="M637.17006,85.27103l-11.23139,-8.61815" stroke="#59bf40" stroke-width="3"/><path d="M625.93867,76.65288l-8.45131,2.26452" stroke="#a6bf40" stroke-width="2"/><path d="M617.48736,78.9174l-2.06935,4.99585" stroke="#bf8c40" stroke-width="1"/><path d="M615.41802,83.91325l1.671,2.89426" stroke="#bf4040" stroke-width="1"/><path d="M615.41802,83.91325l-3.22813,0.86497" stroke="#bf4040" stroke-width="1"/><path d="M617.48736,78.9174l-4.29003,-3.29186" stroke="#bf8c40" stroke-width="1"/><path d="M613.19733,75.62555l-3.22813,0.86497" stroke="#bf4040" stroke-width="1"/><path d="M613.19733,75.62555l0,-3.34201" stroke="#bf4040" stroke-width="1"/><path d="M625.93867,76.65288l0,-8.74944" stroke="#a6bf40" stroke-width="2"/><path d="M625.93867,67.90344l-4.29003,-3.29186" stroke="#bf8c40" stroke-width="1"/><path d="M621.64864,64.61159l-3.22813,0.86497" stroke="#bf4040" stroke-width="1"/><path d="M621.64864,64.61159l0,-3.34201" stroke="#bf4040" stroke-width="1"/><path d="M625.93867,67.90344l4.29003,-3.29186" stroke="#bf8c40" stroke-width="1"/><path d="M630.2287,64.61159l0,-3.34201" stroke="#bf4040" stroke-width="1"/><path d="M630.2287,64.61159l3.22813,0.86497" stroke="#bf4040" stroke-width="1"/><path d="M637.17006,85.27103l11.23139,-8.61815" stroke="#59bf40" stroke-width="3"/><path d="M648.40145,76.65288l0,-8.74944" stroke="#a6bf40" stroke-width="2"/><path d="M648.40145,67.90344l-4.29003,-3.29186" stroke="#bf8c40" stroke-width="1"/><path d="M644.11142,64.61159l-3.22813,0.86497" stroke="#bf4040" stroke-width="1"/><path d="M644.11142,64.61159l0,-3.34201" stroke="#bf4040" stroke-width="1"/><path d="M648.40145,67.90344l4.29003,-3.29186" stroke="#bf8c40" stroke-width="1"/><path d="M652.69148,64.61159l0,-3.34201" stroke="#bf4040" stroke-width="1"/><path d="M652.69148,64.61159l3.22813,0.86497" stroke="#bf4040" stroke-width="1"/><path d="M648.40145,76.65288l8.45131,2.26452" stroke="#a6bf40" stroke-width="2"/><path d="M656.85276,78.9174l4.29003,-3.29186" stroke="#bf8c40" stroke-width="1"/><path d="M661.14279,75.62555l0,-3.34201" stroke="#bf4040" stroke-width="1"/><path d="M661.14279,75.62555l3.22813,0.86497" stroke="#bf4040" stroke-width="1"/><path d="M656.85276,78.9174l2.06935,4.99585" stroke="#bf8c40" stroke-width="1"/><path d="M658.92211,83.91325l3.22813,0.86497" stroke="#bf4040" stroke-width="1"/><path d="M658.92211,83.91325l-1.671,2.89426" stroke="#bf4040" stroke-width="1"/><path d="M666.57407,130.73974l29.40401,-22.56249" stroke="#40bfbf" stroke-width="5"/><path d="M695.97809,108.17725l0,-22.90622" stroke="#40bf73" stroke-width="4"/><path d="M695.97809,85.27103l-11.23139,-8.61815" stroke="#59bf40" stroke-width="3"/><path d="M684.7467,76.65288l-8.45131,2.26452" stroke="#a6bf40" stroke-width="2"/><path d="M676.29539,78.9174l-2.06935,4.99585" stroke="#bf8c40" stroke-width="1"/><path d="M674.22604,83.91325l1.671,2.89426" stroke="#bf4040" stroke-width="1"/><path d="M674.22604,83.91325l-3.22813,0.86497" stroke="#bf4040" stroke-width="1"/><path d="M676.29539,78.9174l-4.29003,-3.29186" stroke="#bf8c40" stroke-width="1"/><path d="M672.00536,75.62555l-3.22813,0.86497" stroke="#bf4040" stroke-width="1"/><path d="M672.00536,75.62555l0,-3.34201" stroke="#bf4040" stroke-width="1"/><path d="M684.7467,76.65288l0,-8.74944" stroke="#a6bf40" stroke-width="2"/><path d="M684.7467,67.90344l-4.29003,-3.29186" stroke="#bf8c40" stroke-width="1"/><path d="M680.45667,64.61159l-3.22813,0.86497" stroke="#bf4040" stroke-width="1"/><path d="M680.45667,64.61159l0,-3.34201" stroke="#bf4040" stroke-width="1"/><path d="M684.7467,67.90344l4.29003,-3.29186" stroke="#bf8c40" stroke-width="1"/><path d="M689.03673,64.61159l0,-3.34201" stroke="#bf4040" stroke-width="1"/><path d="M689.03673,64.61159l3.22813,0.86497" stroke="#bf4040" stroke-width="1"/><path d="M695.97809,85.27103l11.23139,-8.61815" stroke="#59bf40" stroke-width="3"/><path d="M707.20948,76.65288l0,-8.74944" stroke="#a6bf40" stroke-width="2"/><path d="M707.20948,67.90344l-4.29003,-3.29186" stroke="#bf8c40" stroke-width="1"/><path d="M702.91945,64.61159l-3.22813,0.86497" stroke="#bf4040" stroke-width="1"/><path d="M702.91945,64.61159l0,-3.34201" stroke="#bf4040" stroke-width="1"/><path d="M707.20948,67.90344l4.29003,-3.29186" stroke="#bf8c40" stroke-width="1"/><path d="M711.49951,64.61159l0,-3.34201" stroke="#bf4040" stroke-width="1"/><path d="M711.49951,64.61159l3.22813,0.86497" stroke="#bf4040" stroke-width="1"/><path d="M707.20948,76.65288l8.45131,2.26452" stroke="#a6bf40" stroke-width="2"/><path d="M715.66079,78.9174l4.29003,-3.29186" stroke="#bf8c40" stroke-width="1"/><path d="M719.95082,75.62555l0,-3.34201" stroke="#bf4040" stroke-width="1"/><path d="M719.95082,75.62555l3.22813,0.86497" stroke="#bf4040" stroke-width="1"/><path d="M715.66079,78.9174l2.06935,4.99585" stroke="#bf8c40" stroke-width="1"/><path d="M717.73013,83.91325l3.22813,0.86497" stroke="#bf4040" stroke-width="1"/><path d="M717.73013,83.91325l-1.671,2.89426" stroke="#bf4040" stroke-width="1"/><path d="M695.97809,108.17725l22.12571,5.92857" stroke="#40bf73" stroke-width="4"/><path d="M718.10379,114.10581l11.23139,-8.61815" stroke="#59bf40" stroke-width="3"/><path d="M729.33518,105.48766l0,-8.74944" stroke="#a6bf40" stroke-width="2"/><path d="M729.33518,96.73822l-4.29003,-3.29186" stroke="#bf8c40" stroke-width="1"/><path d="M725.04515,93.44637l-3.22813,0.86497" stroke="#bf4040" stroke-width="1"/><path d="M725.04515,93.44637l0,-3.34201" stroke="#bf4040" stroke-width="1"/><path d="M729.33518,96.73822l4.29003,-3.29186" stroke="#bf8c40" stroke-width="1"/><path d="M733.62521,93.44637l0,-3.34201" stroke="#bf4040" stroke-width="1"/><path d="M733.62521,93.44637l3.22813,0.86497" stroke="#bf4040" stroke-width="1"/><path d="M729.33518,105.48766l8.45131,2.26452" stroke="#a6bf40" stroke-width="2"/><path d="M737.78649,107.75218l4.29003,-3.29186" stroke="#bf8c40" stroke-width="1"/><path d="M742.07652,104.46033l0,-3.34201" stroke="#bf4040" stroke-width="1"/><path d="M742.07652,104.46033l3.22813,0.86497" stroke="#bf4040" stroke-width="1"/><path d="M737.78649,107.75218l2.06935,4.99585" stroke="#bf8c40" stroke-width="1"/><path d="M739.85584,112.74803l3.22813,0.86497" stroke="#bf4040" stroke-width="1"/><path d="M739.85584,112.74803l-1.671,2.89426" stroke="#bf4040" stroke-width="1"/><path d="M718.10379,114.10581l5.41759,13.07923" stroke="#59bf40" stroke-width="3"/><path d="M723.52139,127.18504l8.45131,2.26452" stroke="#a6bf40" stroke-width="2"/><path d="M731.9727,129.44956l4.29003,-3.29186" stroke="#bf8c40" stroke-width="1"/><path d="M736.26273,126.15771l0,-3.34201" stroke="#bf4040" stroke-width="1"/><path d="M736.26273,126.15771l3.22813,0.86497" stroke="#bf4040" stroke-width="1"/><path d="M731.9727,129.44956l2.06935,4.99585" stroke="#bf8c40" stroke-width="1"/><path d="M734.04204,134.44541l3.22813,0.86497" stroke="#bf4040" stroke-width="1"/><path d="M734.04204,134.44541l-1.671,2.89426" stroke="#bf4040" stroke-width="1"/><path d="M723.52139,127.18504l-4.37472,7.57724" stroke="#a6bf40" stroke-width="2"/><path d="M719.14667,134.76228l2.06935,4.99585" stroke="#bf8c40" stroke-width="1"/><path d="M721.21602,139.75812l3.22813,0.86497" stroke="#bf4040" stroke-width="1"/><path d="M721.21602,139.75812l-1.671,2.89426" stroke="#bf4040" stroke-width="1"/><path d="M719.14667,134.76228l-5.3612,0.70582" stroke="#bf8c40" stroke-width="1"/><path d="M713.78547,135.46809l-1.671,2.89426" stroke="#bf4040" stroke-width="1"/><path d="M713.78547,135.46809l-2.36315,-2.36315" stroke="#bf4040" stroke-width="1"/><path d="M666.57407,190.7087l57.92557,15.52111" stroke="#4073bf" stroke-width="6"/><path d="M724.49964,206.22981l29.40401,-22.56249" stroke="#40bfbf" stroke-width="5"/><path d="M753.90365,183.66731l0,-22.90622" stroke="#40bf73" stroke-width="4"/><path d="M753.90365,160.7611l-11.23139,-8.61815" stroke="#59bf40" stroke-width="3"/><path d="M742.67226,152.14295l-8.45131,2.26452" stroke="#a6bf40" stroke-width="2"/><path d="M734.22096,154.40747l-2.06935,4.99585" stroke="#bf8c40" stroke-width="1"/><path d="M732.15161,159.40332l1.671,2.89426" stroke="#bf4040" stroke-width="1"/><path d="M732.15161,159.40332l-3.22813,0.86497" stroke="#bf4040" stroke-width="1"/><path d="M734.22096,154.40747l-4.29003,-3.29186" stroke="#bf8c40" stroke-width="1"/><path d="M729.93093,151.11561l-3.22813,0.86497" stroke="#bf4040" stroke-width="1"/><path d="M729.93093,151.11561l0,-3.34201" stroke="#bf4040" stroke-width="1"/><path d="M742.67226,152.14295l0,-8.74944" stroke="#a6bf40" stroke-width="2"/><path d="M742.67226,143.39351l-4.29003,-3.29186" stroke="#bf8c40" stroke-width="1"/><path d="M738.38224,140.10165l-3.22813,0.86497" stroke="#bf4040" stroke-width="1"/><path d="M738.38224,140.10165l0,-3.34201" stroke="#bf4040" stroke-width="1"/><path d="M742.67226,143.39351l4.29003,-3.29186" stroke="#bf8c40" stroke-width="1"/><path d="M746.96229,140.10165l0,-3.34201" stroke="#bf4040" stroke-width="1"/><path d="M746.96229,140.10165l3.22813,0.86497" stroke="#bf4040" stroke-width="1"/><path d="M753.90365,160.7611l11.23139,-8.61815" stroke="#59bf40" stroke-width="3"/><path d="M765.13504,152.14295l0,-8.74944" stroke="#a6bf40" stroke-width="2"/><path d="M765.13504,143.39351l-4.29003,-3.29186" stroke="#bf8c40" stroke-width="1"/><path d="M760.84501,140.10165l-3.22813,0.86497" stroke="#bf4040" stroke-width="1"/><path d="M760.84501,140.10165l0,-3.34201" stroke="#bf4040" stroke-width="1"/><path d="M765.13504,143.39351l4.29003,-3.29186" stroke="#bf8c40" stroke-width="1"/><path d="M769.42507,140.10165l0,-3.34201" stroke="#bf4040" stroke-width="1"/><path d="M769.42507,140.10165l3.22813,0.86497" stroke="#bf4040" stroke-width="1"/><path d="M765.13504,152.14295l8.45131,2.26452" stroke="#a6bf40" stroke-width="2"/><path d="M773.58635,154.40747l4.29003,-3.29186" stroke="#bf8c40" stroke-width="1"/><path d="M777.87638,151.11561l0,-3.34201" stroke="#bf4040" stroke-width="1"/><path d="M777.87638,151.11561l3.22813,0.86497" stroke="#bf4040" stroke-width="1"/><path d="M773.58635,154.40747l2.06935,4.99585" stroke="#bf8c40" stroke-width="1"/><path d="M775.6557,159.40332l3.22813,0.86497" stroke="#bf4040" stroke-width="1"/><path d="M775.6557,159.40332l-1.671,2.89426" stroke="#bf4040" stroke-width="1"/><path d="M753.90365,183.66731l22.12571,5.92857" stroke="#40bf73" stroke-width="4"/><path d="M776.02936,189.59588l11.23139,-8.61815" stroke="#59bf40" stroke-width="3"/><path d="M787.26075,180.97773l0,-8.74944" stroke="#a6bf40" stroke-width="2"/><path d="M787.26075,172.22829l-4.29003,-3.29186" stroke="#bf8c40" stroke-width="1"/><path d="M782.97072,168.93644l-3.22813,0.86497" stroke="#bf4040" stroke-width="1"/><path d="M782.97072,168.93644l0,-3.34201" stroke="#bf4040" stroke-width="1"/><path d="M787.26075,172.22829l4.29003,-3.29186" stroke="#bf8c40" stroke-width="1"/><path d="M791.55078,168.93644l0,-3.34201" stroke="#bf4040" stroke-width="1"/><path d="M791.55078,168.93644l3.22813,0.86497" stroke="#bf4040" stroke-width="1"/><path d="M787.26075,180.97773l8.45131,2.26452" stroke="#a6bf40" stroke-width="2"/><path d="M795.71206,183.24225l4.29003,-3.29186" stroke="#bf8c40" stroke-width="1"/><path d="M800.00209,179.9504l0,-3.34201" stroke="#bf4040" stroke-width="1"/><path d="M800.00209,179.9504l3.22813,0.86497" stroke="#bf4040" stroke-width="1"/><path d="M795.71206,183.24225l2.06935,4.99585" stroke="#bf8c40" stroke-width="1"/><path d="M797.78141,188.2381l3.22813,0.86497" stroke="#bf4040" stroke-width="1"/><path d="M797.78141,188.2381l-1.671,2.89426" stroke="#bf4040" stroke-width="1"/><path d="M776.02936,189.59588l5.41759,13.07923" stroke="#59bf40" stroke-width="3"/><path d="M781.44695,202.67511l8.45131,2.26452" stroke="#a6bf40" stroke-width="2"/><path d="M789.89826,204.93963l4.29003,-3.29186" stroke="#bf8c40" stroke-width="1"/><path d="M794.18829,201.64777l0,-3.34201" stroke="#bf4040" stroke-width="1"/><path d="M794.18829,201.64777l3.22813,0.86497" stroke="#bf4040" stroke-width="1"/><path d="M789.89826,204.93963l2.06935,4.99585" stroke="#bf8c40" stroke-width="1"/><path d="M791.96761,209.93548l3.22813,0.86497" stroke="#bf4040" stroke-width="1"/><path d="M791.96761,209.93548l-1.671,2.89426" stroke="#bf4040" stroke-width="1"/><path d="M781.44695,202.67511l-4.37472,7.57724" stroke="#a6bf40" stroke-width="2"/><path d="M777.07223,210.25235l2.06935,4.99585" stroke="#bf8c40" stroke-width="1"/><path d="M779.14158,215.24819l3.22813,0.86497" stroke="#bf4040" stroke-width="1"/><path d="M779.14158,215.24819l-1.671,2.89426" stroke="#bf4040" stroke-width="1"/><path d="M777.07223,210.25235l-5.3612,0.70582" stroke="#bf8c40" stroke-width="1"/><path d="M771.71103,210.95816l-1.671,2.89426" stroke="#bf4040" stroke-width="1"/><path d="M771.71103,210.95816l-2.36315,-2.36315" stroke="#bf4040" stroke-width="1"/><path d="M724.49964,206.22981l14.18338,34.2417" stroke="#40bfbf" stroke-width="5"/><path d="M738.68302,240.4715l22.12571,5.92857" stroke="#40bf73" stroke-width="4"/><path d="M760.80872,246.40007l11.23139,-8.61815" stroke="#59bf40" stroke-width="3"/><path d="M772.04011,237.78192l0,-8.74944" stroke="#a6bf40" stroke-width="2"/><path d="M772.04011,229.03248l-4.29003,-3.29186" stroke="#bf8c40" stroke-width="1"/><path d="M767.75008,225.74063l-3.22813,0.86497" stroke="#bf4040" stroke-width="1"/><path d="M767.75008,225.74063l0,-3.34201" stroke="#bf4040" stroke-width="1"/><path d="M772.04011,229.03248l4.29003,-3.29186" stroke="#bf8c40" stroke-width="1"/><path d="M776.33014,225.74063l0,-3.34201" stroke="#bf4040" stroke-width="1"/><path d="M776.33014,225.74063l3.22813,0.86497" stroke="#bf4040" stroke-width="1"/><path d="M772.04011,237.78192l8.45131,2.26452" stroke="#a6bf40" stroke-width="2"/><path d="M780.49142,240.04644l4.29003,-3.29186" stroke="#bf8c40" stroke-width="1"/><path d="M784.78145,236.75459l0,-3.34201" stroke="#bf4040" stroke-width="1"/><path d="M784.78145,236.75459l3.22813,0.86497" stroke="#bf4040" stroke-width="1"/><path d="M780.49142,240.04644l2.06935,4.99585" stroke="#bf8c40" stroke-width="1"/><path d="M782.56077,245.04229l3.22813,0.86497" stroke="#bf4040" stroke-width="1"/><path d="M782.56077,245.04229l-1.671,2.89426" stroke="#bf4040" stroke-width="1"/><path d="M760.80872,246.40007l5.41759,13.07923" stroke="#59bf40" stroke-width="3"/><path d="M766.22632,259.4793l8.45131,2.26452" stroke="#a6bf40" stroke-width="2"/><path d="M774.67763,261.74382l4.29003,-3.29186" stroke="#bf8c40" stroke-width="1"/><path d="M778.96766,258.45196l0,-3.34201" stroke="#bf4040" stroke-width="1"/><path d="M778.96766,258.45196l3.22813,0.86497" stroke="#bf4040" stroke-width="1"/><path d="M774.67763,261.74382l2.06935,4.99585" stroke="#bf8c40" stroke-width="1"/><path d="M776.74697,266.73967l3.22813,0.86497" stroke="#bf4040" stroke-width="1"/><path d="M776.74697,266.73967l-1.671,2.89426" stroke="#bf4040" stroke-width="1"/><path d="M766.22632,259.4793l-4.37472,7.57724" stroke="#a6bf40" stroke-width="2"/><path d="M761.8516,267.05654l2.06935,4.99585" stroke="#bf8c40" stroke-width="1"/><path d="M763.92094,272.05238l3.22813,0.86497" stroke="#bf4040" stroke-width="1"/><path d="M763.92094,272.05238l-1.671,2.89426" stroke="#bf4040" stroke-width="1"/><path d="M761.8516,267.05654l-5.3612,0.70582" stroke="#bf8c40" stroke-width="1"/><path d="M756.4904,267.76235l-1.671,2.89426" stroke="#bf4040" stroke-width="1"/><path d="M756.4904,267.76235l-2.36315,-2.36315" stroke="#bf4040" stroke-width="1"/><path d="M738.68302,240.4715l-11.45311,19.83737" stroke="#40bf73" stroke-width="4"/><path d="M727.22991,260.30887l5.41759,13.07923" stroke="#59bf40" stroke-width="3"/><path d="M732.6475,273.3881l8.45131,2.26452" stroke="#a6bf40" stroke-width="2"/><path d="M741.09881,275.65262l4.29003,-3.29186" stroke="#bf8c40" stroke-width="1"/><path d="M745.38884,272.36076l0,-3.34201" stroke="#bf4040" stroke-width="1"/><path d="M745.38884,272.36076l3.22813,0.86497" stroke="#bf4040" stroke-width="1"/><path d="M741.09881,275.65262l2.06935,4.99585" stroke="#bf8c40" stroke-width="1"/><path d="M743.16816,280.64847l3.22813,0.86497" stroke="#bf4040" stroke-width="1"/><path d="M743.16816,280.64847l-1.671,2.89426" stroke="#bf4040" stroke-width="1"/><path d="M732.6475,273.3881l-4.37472,7.57724" stroke="#a6bf40" stroke-width="2"/><path d="M728.27278,280.96534l2.06935,4.99585" stroke="#bf8c40" stroke-width="1"/><path d="M730.34213,285.96118l3.22813,0.86497" stroke="#bf4040" stroke-width="1"/><path d="M730.34213,285.96118l-1.671,2.89426" stroke="#bf4040" stroke-width="1"/><path d="M728.27278,280.96534l-5.3612,0.70582" stroke="#bf8c40" stroke-width="1"/><path d="M722.91158,281.67115l-1.671,2.89426" stroke="#bf4040" stroke-width="1"/><path d="M722.91158,281.67115l-2.36315,-2.36315" stroke="#bf4040" stroke-width="1"/><path d="M727.22991,260.30887l-14.03574,1.84784" stroke="#59bf40" stroke-width="3"/><path d="M713.19417,262.15671l-4.37472,7.57724" stroke="#a6bf40" stroke-width="2"/><path d="M708.81945,269.73395l2.06935,4.99585" stroke="#bf8c40" stroke-width="1"/><path d="M710.88879,274.72979l3.22813,0.86497" stroke="#bf4040" stroke-width="1"/><path d="M710.88879,274.72979l-1.671,2.89426" stroke="#bf4040" stroke-width="1"/><path d="M708.81945,269.73395l-5.3612,0.70582" stroke="#bf8c40" stroke-width="1"/><path d="M703.45824,270.43976l-1.671,2.89426" stroke="#bf4040" stroke-width="1"/><path d="M703.45824,270.43976l-2.36315,-2.36315" stroke="#bf4040" stroke-width="1"/><path d="M713.19417,262.15671l-6.18679,-6.18679" stroke="#a6bf40" stroke-width="2"/><path d="M707.00738,255.96992l-5.3612,0.70582" stroke="#bf8c40" stroke-width="1"/><path d="M701.64618,256.67574l-1.671,2.89426" stroke="#bf4040" stroke-width="1"/><path d="M701.64618,256.67574l-2.36315,-2.36315" stroke="#bf4040" stroke-width="1"/><path d="M707.00738,255.96992l0.70582,-5.3612" stroke="#bf8c40" stroke-width="1"/><path d="M707.71319,250.60872l-2.36315,-2.36315" stroke="#bf4040" stroke-width="1"/><path d="M707.71319,250.60872l2.89426,-1.671" stroke="#bf4040" stroke-width="1"/></g></g></svg>